<?xml version="1.0" standalone="no"?>
<!DOCTYPE svg PUBLIC "-//W3C//DTD SVG 20010904//EN"
 "http://www.w3.org/TR/2001/REC-SVG-20010904/DTD/svg10.dtd">
<svg version="1.0" xmlns="http://www.w3.org/2000/svg"
 width="512.000000pt" height="512.000000pt" viewBox="0 0 512.000000 512.000000"
 preserveAspectRatio="xMidYMid meet">

<g transform="translate(0.000000,512.000000) scale(0.100000,-0.100000)"
fill="#000000" stroke="none">
<path d="M1876 4934 c-124 -30 -141 -44 -889 -731 -392 -360 -740 -684 -775
-720 -80 -84 -132 -172 -174 -293 l-33 -95 -3 -1244 c-3 -1360 -5 -1293 55
-1419 57 -116 198 -223 331 -251 37 -8 515 -11 1610 -11 1715 0 1611 -4 1734
62 66 35 148 113 184 175 53 90 67 148 73 318 l6 159 423 182 c233 99 442 191
465 204 146 82 247 276 234 450 -6 64 -62 237 -400 1220 -217 630 -401 1162
-410 1182 -40 95 -156 232 -251 297 -115 79 -156 91 -1001 291 -445 105 -853
202 -905 216 -105 27 -186 29 -274 8z m221 -317 c41 -29 264 -233 998 -909
490 -451 529 -493 570 -608 19 -53 20 -88 23 -1253 2 -814 -1 -1211 -8 -1237
-14 -51 -55 -98 -105 -121 -38 -18 -108 -19 -1582 -19 -1065 0 -1550 3 -1570
11 -40 15 -82 57 -104 104 -18 38 -19 93 -19 1227 0 842 3 1202 11 1240 15 72
61 160 112 215 39 43 216 206 1101 1018 197 181 375 337 395 347 51 27 128 20
178 -15z m1157 -263 c338 -80 549 -135 580 -151 69 -35 148 -113 184 -181 36
-68 802 -2296 802 -2332 0 -69 -41 -134 -105 -168 -16 -8 -185 -82 -375 -163
l-345 -147 -5 931 c-5 858 -7 937 -24 997 -30 108 -99 238 -168 317 -44 50
-996 935 -1097 1020 -13 10 70 -8 553 -123z"/>
<path d="M1932 4134 c-133 -68 -94 -267 56 -281 83 -8 157 61 157 147 0 107
-119 182 -213 134z"/>
<path d="M1140 3176 c-80 -21 -144 -59 -211 -126 -210 -208 -210 -561 0 -771
256 -256 646 -143 762 221 29 90 29 240 0 330 -81 255 -325 408 -551 346z
m176 -311 c131 -77 130 -324 -2 -401 -170 -100 -322 177 -194 354 52 72 124
89 196 47z"/>
<path d="M2305 3096 c-16 -7 -40 -24 -52 -38 -27 -29 -763 -1778 -770 -1828
-6 -49 32 -118 77 -142 67 -35 156 -15 194 44 8 13 179 417 381 898 242 576
369 890 372 920 6 61 -21 108 -77 138 -50 25 -82 27 -125 8z"/>
<path d="M2655 1986 c-160 -39 -304 -188 -350 -361 -19 -76 -19 -224 0 -300
56 -213 250 -374 450 -375 61 0 150 22 208 51 56 29 166 142 200 206 36 68 67
191 67 268 0 34 -9 97 -20 139 -69 270 -310 432 -555 372z m184 -315 c17 -12
43 -43 58 -69 24 -41 28 -58 28 -127 0 -69 -4 -86 -27 -127 -45 -76 -108 -110
-173 -94 -37 9 -96 65 -116 111 -37 81 -20 215 34 274 60 65 132 77 196 32z"/>
</g>
</svg>
