<svg width="192" height="192" viewBox="0 0 192 192" fill="none" xmlns="http://www.w3.org/2000/svg">
    <g clip-path="url(#clip0_5898_318)">
    <rect width="192" height="192" fill="white"/>
    <path fill-rule="evenodd" clip-rule="evenodd" d="M165.267 40.3485C179.308 62.0313 176.712 87.3465 171.027 108.895C165.96 128.1 155.274 145.574 136.684 148.696C119.93 151.505 104.867 131.115 87.3657 122.934C58.3149 109.36 13.9963 118.759 4.03248 86.7027C-5.74166 55.2464 39.2798 51.4766 59.8203 34.3114C74.0605 22.4074 83.1021 2.80039 103.056 3.94505C125.717 5.23654 150.805 18.015 165.267 40.3485Z" fill="#FF6100" fill-opacity="0.15"/>
    <g clip-path="url(#clip1_5898_318)">
    <path d="M155.2 73.69L63.09 82.01L57.91 24.74C57.68 22.22 59.54 19.99 62.06 19.76L145.04 12.26C147.56 12.03 149.79 13.89 150.02 16.41L155.2 73.69Z" fill="white"/>
    <path d="M63.09 82.27C62.96 82.27 62.85 82.17 62.84 82.04L57.66 24.77C57.42 22.12 59.38 19.76 62.04 19.52L145.02 12.02C147.67 11.78 150.03 13.75 150.27 16.4L155.45 73.67C155.46 73.74 155.44 73.8 155.39 73.85C155.34 73.9 155.29 73.93 155.22 73.94L63.11 82.26C63.11 82.27 63.1 82.27 63.09 82.27ZM145.47 12.5C145.34 12.5 145.21 12.51 145.08 12.52L62.1 20.02C59.72 20.23 57.96 22.35 58.17 24.73L63.32 81.75L154.93 73.47L149.78 16.45C149.58 14.2 147.68 12.5 145.47 12.5Z" fill="#001133"/>
    <path d="M72.87 80.89C72.87 80.89 87.32 93.52 82.32 119.52L72.87 80.89Z" fill="white"/>
    <path d="M82.32 119.77C82.3 119.77 82.29 119.77 82.27 119.77C82.13 119.74 82.05 119.61 82.07 119.48C86.98 93.93 72.85 81.21 72.7 81.08C72.6 80.99 72.59 80.83 72.68 80.73C72.77 80.63 72.93 80.62 73.03 80.71C73.18 80.84 87.53 93.73 82.56 119.58C82.54 119.69 82.43 119.77 82.32 119.77Z" fill="#001133"/>
    <path d="M58.16 27.54L150.36 19.52L151.36 30.52L59.16 38.54L58.16 27.54Z" fill="#001133"/>
    <path d="M76.4601 162.13C74.7301 163.41 72.4601 163.68 70.4801 162.84L33.7101 147.32C31.4801 146.37 31.0101 143.42 32.8501 141.84C39.6901 135.96 52.4801 123.17 51.7601 110.21C51.7201 109.54 51.5801 108.89 51.4101 108.25C50.2001 103.83 45.2301 84.69 45.6701 70.19C46.9701 58.51 48.2701 46.78 48.7301 35.03C48.8001 33.29 48.7701 31.55 48.7801 29.8C48.7901 27.6 49.4201 24.62 51.7801 23.82C54.3801 22.94 56.7001 25.83 58.2201 27.5C60.4301 29.89 61.7801 32.79 62.5601 35.94C64.2401 42.76 64.3801 50.77 63.1701 57.69C63.1701 57.69 61.3601 70.71 73.1701 81.28L143.67 74.67L141.54 74.88C139 77.73 136.47 80.59 133.92 83.43C135.67 82.18 137.56 81.27 139.23 79.85C140.99 78.36 142.62 76.72 144.32 75.17C144.53 74.98 144.74 74.79 144.99 74.67C145.32 74.51 145.69 74.47 146.05 74.44C148.16 74.25 150.27 74.06 152.37 73.87C151.45 71.9 150.88 69.63 151.51 67.54C152.01 65.88 153.28 64.48 154.85 63.73C156.42 62.98 158.27 62.87 159.94 63.34C161.29 63.72 162.55 64.47 163.43 65.56C164.87 67.35 164.83 69.71 164.37 71.85C163.8 74.53 161.76 76.2 159.96 78.11C157.69 80.52 155.43 82.93 153.16 85.34C149.7 89.01 146.61 93.02 143.93 97.3C136.9 108.5 121.15 131.94 107.65 140.19L76.4601 162.13Z" fill="white"/>
    <path d="M72.84 163.57C72.01 163.57 71.17 163.41 70.38 163.07L33.61 147.55C32.48 147.07 31.69 146.06 31.5 144.84C31.31 143.64 31.76 142.44 32.68 141.65C40.01 135.35 52.21 122.88 51.5 110.22C51.46 109.51 51.29 108.83 51.16 108.31C50.12 104.52 44.97 84.86 45.41 70.18C46.69 58.7 48.01 46.84 48.47 35.02C48.52 33.78 48.52 32.52 48.52 31.31C48.52 30.81 48.52 30.31 48.52 29.8C48.53 28.59 48.77 24.57 51.69 23.58C54.25 22.71 56.53 25.26 58.04 26.94L58.39 27.33C60.49 29.6 61.92 32.39 62.79 35.88C64.44 42.57 64.66 50.54 63.4 57.73C63.38 57.85 61.76 70.68 73.24 81.02L143.63 74.42C143.76 74.41 143.89 74.51 143.9 74.65C143.91 74.79 143.81 74.91 143.68 74.92L141.65 75.12L139.23 77.84C137.95 79.28 136.67 80.72 135.39 82.15C135.57 82.04 135.74 81.93 135.92 81.82C136.98 81.17 138.07 80.49 139.06 79.65C140.18 78.7 141.26 77.68 142.31 76.69C142.92 76.11 143.53 75.54 144.15 74.97C144.34 74.79 144.59 74.57 144.88 74.43C145.25 74.25 145.67 74.21 146.03 74.18L152 73.64C150.98 71.31 150.74 69.23 151.27 67.46C151.78 65.77 153.08 64.29 154.75 63.5C156.33 62.75 158.25 62.6 160.02 63.1C161.48 63.51 162.77 64.33 163.64 65.41C164.91 66.99 165.23 69.11 164.63 71.91C164.14 74.23 162.56 75.83 161.04 77.38C160.74 77.68 160.45 77.98 160.16 78.29L153.36 85.52C149.93 89.16 146.83 93.17 144.16 97.44C125.77 126.73 113.49 136.93 107.8 140.41L76.61 162.34C75.5 163.15 74.18 163.57 72.84 163.57ZM52.76 23.91C52.46 23.91 52.16 23.96 51.86 24.06C49.25 24.94 49.03 28.68 49.03 29.8C49.03 30.3 49.03 30.8 49.03 31.3C49.03 32.52 49.03 33.79 48.98 35.03C48.52 46.87 47.2 58.74 45.92 70.21C45.48 84.8 50.62 104.4 51.65 108.18C51.79 108.72 51.96 109.44 52.01 110.19C52.72 123.07 40.41 135.66 33.01 142.02C32.22 142.7 31.84 143.73 32 144.76C32.16 145.8 32.84 146.67 33.81 147.08L70.58 162.6C72.47 163.4 74.66 163.14 76.31 161.92L107.52 139.98C121.19 131.62 137.4 107.25 143.73 97.16C146.42 92.86 149.54 88.82 152.99 85.16L159.79 77.93C160.08 77.62 160.38 77.32 160.68 77.01C162.22 75.44 163.68 73.96 164.14 71.79C164.71 69.15 164.42 67.16 163.25 65.71C162.44 64.71 161.25 63.95 159.89 63.57C158.24 63.11 156.44 63.24 154.97 63.94C153.43 64.67 152.23 66.04 151.76 67.6C151.23 69.33 151.52 71.4 152.61 73.75C152.64 73.82 152.64 73.91 152.6 73.98C152.56 74.05 152.49 74.1 152.41 74.1L146.09 74.67C145.75 74.7 145.4 74.73 145.11 74.87C144.88 74.98 144.68 75.17 144.5 75.33C143.88 75.89 143.28 76.47 142.67 77.04C141.62 78.03 140.53 79.06 139.4 80.02C138.38 80.88 137.27 81.57 136.2 82.24C135.5 82.68 134.77 83.13 134.08 83.62C133.98 83.69 133.83 83.68 133.75 83.58C133.66 83.48 133.67 83.34 133.75 83.25C135.46 81.34 137.17 79.42 138.88 77.5L140.95 75.17L73.2 81.52C73.13 81.53 73.06 81.5 73.01 81.46C66.86 75.96 64.45 69.78 63.5 65.57C62.48 61 62.91 57.78 62.93 57.65C64.18 50.51 63.96 42.62 62.33 35.99C61.49 32.59 60.09 29.87 58.05 27.66L57.7 27.27C56.38 25.83 54.66 23.91 52.76 23.91Z" fill="#001133"/>
    <path d="M150.28 17.8C150.21 17.73 150.43 17.7 150.8 17.59C151.26 17.44 151.75 17.35 152.22 17.25C154.08 16.85 156.05 16.61 157.93 17.08C158.75 17.29 159.55 17.64 160.13 18.21C160.79 18.87 161.11 19.76 161.18 20.65C161.43 23.67 159.82 25.53 157.51 27.52C155.67 29.11 153.52 30.48 151.49 31.87C151.1 28.21 150.91 24.66 150.52 21C150.51 21.01 150.3 17.83 150.28 17.8Z" fill="white"/>
    <path d="M151.48 32.13C151.44 32.13 151.41 32.12 151.38 32.11C151.3 32.07 151.25 32 151.24 31.91C151.04 30.08 150.9 28.25 150.76 26.47C150.62 24.7 150.47 22.86 150.28 21.03C150.21 19.91 150.08 18.11 150.05 17.87C150.03 17.82 150.03 17.76 150.04 17.71C150.08 17.54 150.24 17.5 150.47 17.43C150.55 17.41 150.63 17.38 150.74 17.35C151.11 17.23 151.51 17.15 151.89 17.07L152.18 17.01C153.81 16.66 155.95 16.32 158 16.84C158.98 17.09 159.76 17.49 160.31 18.04C161.13 18.85 161.37 19.9 161.43 20.63C161.67 23.62 160.24 25.49 157.67 27.71C156.13 29.04 154.37 30.23 152.66 31.37L151.62 32.07C151.58 32.11 151.53 32.13 151.48 32.13ZM150.54 17.93C150.58 18.27 150.63 19.07 150.76 20.99C150.96 22.82 151.1 24.65 151.24 26.43C151.37 28.06 151.51 29.75 151.68 31.44L152.37 30.97C154.06 29.83 155.81 28.65 157.33 27.34C159.77 25.23 161.14 23.46 160.91 20.68C160.86 20.03 160.64 19.1 159.93 18.4C159.44 17.92 158.74 17.56 157.85 17.33C155.9 16.84 153.83 17.16 152.25 17.5L151.96 17.56C151.59 17.64 151.21 17.72 150.86 17.83C150.75 17.86 150.66 17.89 150.58 17.91C150.57 17.92 150.56 17.92 150.54 17.93Z" fill="#001133"/>
    <path d="M158.367 44.509C162.184 42.1234 163.774 37.7824 161.918 34.8132C160.062 31.8439 155.463 31.3708 151.647 33.7564C147.83 36.142 146.24 40.4829 148.096 43.4522C149.951 46.4214 154.55 46.8946 158.367 44.509Z" fill="white"/>
    <path d="M153.32 46.29C153.04 46.29 152.76 46.28 152.48 46.25C150.46 46.04 148.83 45.1 147.89 43.6C146.95 42.1 146.82 40.22 147.51 38.32C148.2 36.44 149.62 34.75 151.51 33.57C153.4 32.39 155.54 31.85 157.54 32.06C159.56 32.27 161.19 33.21 162.13 34.71C163.07 36.21 163.2 38.09 162.51 39.99C161.82 41.87 160.4 43.56 158.51 44.74C156.87 45.75 155.06 46.29 153.32 46.29ZM156.7 32.5C155.05 32.5 153.33 33.01 151.78 33.98C149.98 35.1 148.63 36.7 147.98 38.48C147.34 40.24 147.45 41.96 148.31 43.33C149.17 44.7 150.66 45.56 152.52 45.75C154.4 45.95 156.43 45.43 158.23 44.31C160.03 43.19 161.38 41.59 162.03 39.81C162.67 38.05 162.56 36.33 161.7 34.96C160.84 33.59 159.35 32.73 157.49 32.54C157.23 32.51 156.96 32.5 156.7 32.5Z" fill="#001133"/>
    <path d="M160.644 59.2147C164.365 56.0365 165.319 51.0464 162.776 48.0689C160.233 45.0914 155.155 45.254 151.434 48.4322C147.713 51.6104 146.758 56.6005 149.302 59.578C151.845 62.5555 156.923 62.3928 160.644 59.2147Z" fill="white"/>
    <path d="M154.26 61.95C152.16 61.95 150.33 61.17 149.11 59.73C147.83 58.23 147.35 56.2 147.77 54.02C148.18 51.86 149.43 49.8 151.27 48.23C153.11 46.66 155.34 45.75 157.54 45.68C159.76 45.6 161.69 46.4 162.97 47.9C164.25 49.4 164.73 51.43 164.31 53.61C163.9 55.77 162.65 57.83 160.81 59.4C158.97 60.97 156.74 61.88 154.54 61.95C154.44 61.95 154.35 61.95 154.26 61.95ZM157.81 46.18C157.72 46.18 157.64 46.18 157.55 46.18C155.46 46.25 153.35 47.11 151.59 48.61C149.83 50.11 148.65 52.07 148.26 54.12C147.87 56.15 148.31 58.03 149.49 59.41C150.67 60.79 152.46 61.52 154.52 61.45C156.61 61.38 158.72 60.52 160.48 59.02C162.24 57.52 163.42 55.56 163.81 53.51C164.2 51.48 163.76 49.6 162.58 48.22C161.45 46.9 159.76 46.18 157.81 46.18Z" fill="#001133"/>
    <path d="M152.4 73.84C152.4 73.84 153.14 75.05 155 75.56L152.4 73.84Z" fill="white"/>
    <path d="M155 75.8C154.98 75.8 154.96 75.8 154.93 75.79C153 75.26 152.22 74.02 152.19 73.96C152.12 73.84 152.15 73.69 152.27 73.62C152.39 73.55 152.54 73.58 152.61 73.7C152.62 73.71 153.33 74.83 155.06 75.31C155.19 75.35 155.27 75.48 155.23 75.62C155.21 75.73 155.11 75.8 155 75.8Z" fill="#001133"/>
    <path d="M145.04 74.53L145.03 74.54L143.67 74.67L145.04 74.53Z" fill="white"/>
    <path d="M143.67 74.92C143.54 74.92 143.43 74.82 143.42 74.69C143.41 74.55 143.51 74.43 143.64 74.42L145.01 74.28C145.12 74.27 145.22 74.33 145.26 74.42C145.31 74.52 145.29 74.63 145.21 74.7L145.2 74.71C145.16 74.75 145.1 74.78 145.05 74.78L143.69 74.91C143.69 74.92 143.68 74.92 143.67 74.92Z" fill="#001133"/>
    <path d="M136.29 85.53C136.29 85.53 140.82 87.64 140.82 91.24L136.29 85.53Z" fill="white"/>
    <path d="M140.82 91.49C140.68 91.49 140.57 91.38 140.57 91.24C140.57 87.84 136.22 85.78 136.18 85.76C136.06 85.7 136 85.55 136.06 85.43C136.12 85.3 136.27 85.25 136.39 85.31C136.58 85.4 141.07 87.53 141.07 91.24C141.07 91.37 140.96 91.49 140.82 91.49Z" fill="#001133"/>
    <path d="M141.74 74.63L79.31 95.41C79.31 95.41 77.09 85.51 72.87 80.89L141.74 74.63Z" fill="#001133"/>
    <path d="M72.87 80.89C72.87 80.89 82.77 92.13 79.68 114.08L72.87 80.89Z" fill="white"/>
    <path d="M79.68 114.32C79.67 114.32 79.66 114.32 79.64 114.32C79.5 114.3 79.41 114.17 79.43 114.04C82.46 92.47 72.77 81.16 72.68 81.05C72.59 80.95 72.6 80.79 72.7 80.7C72.8 80.61 72.96 80.62 73.05 80.72C73.15 80.83 82.99 92.3 79.92 114.11C79.91 114.23 79.8 114.32 79.68 114.32Z" fill="#001133"/>
    <path d="M131.56 79.52C131.56 79.52 134.2 81.15 133.8 83.47L131.56 79.52Z" fill="white"/>
    <path d="M133.8 83.72C133.79 83.72 133.77 83.72 133.76 83.72C133.62 83.7 133.53 83.57 133.56 83.43C133.92 81.3 131.46 79.75 131.43 79.73C131.31 79.66 131.28 79.5 131.35 79.39C131.42 79.28 131.58 79.24 131.69 79.31C131.8 79.38 134.47 81.06 134.05 83.52C134.03 83.64 133.92 83.72 133.8 83.72Z" fill="#001133"/>
    <path d="M62.86 58.25L63.54 52.82L63.73 47.44L63.95 47.42L122.66 42.39L123.59 52.82L123.34 52.84L62.86 58.25ZM64.21 47.91L64.04 52.87L63.43 57.71L123.04 52.39L122.2 42.95L64.21 47.91Z" fill="#001133"/>
    <path d="M132.26 48.57L133.47 48.47L133.56 49.47L129.9 49.79L129.81 48.79L131.02 48.69L130.74 45.44L129.83 46.08L129.28 45.23L130.97 44.03L131.85 43.95L132.26 48.57Z" fill="#001133"/>
    <path d="M137.97 48.07L138.06 49.07L134.2 49.4L134.12 48.48L135.82 46.33C136.18 45.88 136.34 45.48 136.31 45.13C136.27 44.68 136 44.48 135.49 44.52C135.26 44.54 135.02 44.61 134.77 44.72C134.52 44.84 134.29 44.99 134.06 45.19L133.59 44.34C133.8 44.13 134.07 43.95 134.41 43.81C134.75 43.66 135.1 43.58 135.47 43.54C136.05 43.49 136.53 43.59 136.9 43.84C137.27 44.09 137.48 44.45 137.52 44.93C137.55 45.25 137.51 45.56 137.4 45.85C137.29 46.14 137.09 46.47 136.8 46.83L135.66 48.26L137.97 48.07Z" fill="#001133"/>
    <path d="M142.16 46.3C142.36 46.52 142.47 46.8 142.5 47.14C142.54 47.64 142.39 48.04 142.04 48.36C141.69 48.68 141.19 48.86 140.55 48.92C140.16 48.95 139.79 48.93 139.42 48.85C139.05 48.77 138.75 48.64 138.51 48.46L138.82 47.54C139.36 47.86 139.89 47.99 140.4 47.95C140.74 47.92 140.98 47.84 141.12 47.71C141.26 47.58 141.32 47.38 141.3 47.13C141.28 46.88 141.19 46.7 141.02 46.61C140.86 46.51 140.61 46.48 140.27 46.51L139.47 46.58L139.39 45.61L140.06 45.55C140.38 45.52 140.62 45.45 140.77 45.32C140.92 45.19 140.98 45.02 140.96 44.78C140.94 44.55 140.86 44.38 140.71 44.27C140.56 44.16 140.36 44.11 140.1 44.14C139.87 44.16 139.63 44.23 139.38 44.34C139.13 44.46 138.9 44.61 138.67 44.81L138.2 43.96C138.41 43.75 138.68 43.57 139.02 43.43C139.36 43.28 139.72 43.2 140.09 43.16C140.47 43.13 140.81 43.16 141.11 43.26C141.41 43.36 141.64 43.52 141.82 43.73C142 43.95 142.1 44.21 142.12 44.51C142.15 44.81 142.09 45.09 141.95 45.32C141.81 45.56 141.61 45.74 141.34 45.87C141.7 45.93 141.96 46.08 142.16 46.3Z" fill="#001133"/>
    <path d="M127.523 52.7395L126.533 41.773L143.948 40.2004L144.937 51.1669L127.523 52.7395ZM127.616 42.6791L128.429 51.6562L143.854 50.2708L143.042 41.2937L127.616 42.6791Z" fill="#FF6100"/>
    <path d="M73.36 179.02L31.08 154.61C27.42 152.5 26.17 147.82 28.28 144.16L39.62 124.52C41.73 120.86 46.41 119.61 50.07 121.72L92.35 146.13C96.01 148.24 97.26 152.92 95.15 156.58L83.81 176.22C81.7 179.88 77.02 181.13 73.36 179.02Z" fill="white"/>
    <path d="M77.1699 180.3C75.7999 180.3 74.4499 179.94 73.2299 179.24L30.9499 154.83C29.1199 153.77 27.8099 152.07 27.2699 150.03C26.7199 147.99 26.9999 145.86 28.0599 144.03L39.3999 124.39C41.5799 120.62 46.4199 119.32 50.1899 121.5L92.4699 145.91C96.2399 148.09 97.5399 152.93 95.3599 156.7L84.0199 176.34C82.9599 178.17 81.2599 179.48 79.2199 180.02C78.5499 180.21 77.8599 180.3 77.1699 180.3ZM46.2599 120.94C43.6999 120.94 41.2099 122.27 39.8399 124.64L28.4999 144.28C26.4599 147.82 27.6699 152.35 31.2099 154.39L73.4899 178.8C77.0199 180.84 81.5599 179.63 83.5999 176.09L94.9399 156.45C96.9799 152.91 95.7599 148.38 92.2299 146.34L49.9499 121.93C48.7899 121.26 47.5099 120.94 46.2599 120.94Z" fill="#001133"/>
    </g>
    </g>
    <defs>
    <clipPath id="clip0_5898_318">
    <rect width="192" height="192" fill="white"/>
    </clipPath>
    <clipPath id="clip1_5898_318">
    <rect width="137.93" height="168.3" fill="white" transform="translate(27 12)"/>
    </clipPath>
    </defs>
</svg>
