<svg width="192" height="192" viewBox="0 0 192 192" fill="none" xmlns="http://www.w3.org/2000/svg">
    <g clip-path="url(#clip0_3646_288)">
    <rect width="192" height="192" fill="white"/>
    <path fill-rule="evenodd" clip-rule="evenodd" d="M190.728 72.0938C194.924 100.629 180.54 125.132 164.766 144.376C150.708 161.527 131.747 174.313 111.42 168.856C93.1026 163.934 87.2693 136.237 73.2927 119.807C50.0913 92.5406 0.723522 81.5187 5.48186 44.3415C10.1543 7.86159 57.6231 24.9267 86.448 17.0278C106.433 11.5477 124.714 -4.16722 144.446 6.25528C166.859 18.0833 186.406 42.7025 190.728 72.0938Z" fill="#FF6100" fill-opacity="0.15"/>
    <path d="M163.177 128.339H29.5211V47.8045C29.5211 42.0186 34.2117 37.3384 39.9827 37.3384H152.703C158.486 37.3384 163.164 42.0309 163.164 47.8045V128.339H163.177Z" fill="white"/>
    <path d="M163.484 128.646H29.2142V47.8044C29.2142 41.8589 34.052 37.0312 39.9827 37.0312H152.703C158.646 37.0312 163.471 41.8712 163.471 47.8044V128.646H163.484ZM29.8281 128.032H162.857V47.8044C162.857 42.2029 158.302 37.6455 152.703 37.6455H39.9827C34.3836 37.6455 29.8281 42.2029 29.8281 47.8044V128.032Z" fill="black"/>
    <path d="M156.117 47.1128H37.5997V128.307H156.117V47.1128Z" fill="white"/>
    <path d="M156.411 128.609H37.3059V46.8218H156.411V128.609ZM37.8935 128.027H155.824V47.4038H37.8935V128.027Z" fill="black"/>
    <path d="M29.5211 128.339L2.33569 157.76H185.88L163.177 128.339C163.177 128.339 29.5211 128.02 29.5211 128.339Z" fill="white"/>
    <path d="M186.507 158.067H1.64807L29.3124 128.13C29.4352 128.008 29.7298 127.713 163.177 128.044H163.324L163.41 128.167L186.507 158.067ZM3.04786 157.453H185.254L163.029 128.646C157.946 128.634 33.7819 128.339 29.6808 128.622L3.04786 157.453Z" fill="black"/>
    <path d="M2.34796 157.76L8.27866 163.693H180.404L185.954 157.907C185.954 157.907 1.99187 157.403 2.34796 157.76Z" fill="white"/>
    <path d="M180.527 164H8.1436L1.9796 157.833L2.05327 157.637C2.16378 157.354 2.17606 157.33 31.0928 157.33C46.3309 157.317 67.5611 157.354 94.2062 157.403C140.092 157.489 185.954 157.612 185.954 157.612H186.666L180.527 164ZM8.40145 163.386H180.269L185.23 158.214C173.123 158.177 14.5532 157.76 3.03558 158.03L8.40145 163.386Z" fill="black"/>
    <path d="M35.2554 133.72H157.074L171.428 152.699H19.8945C19.8945 152.699 35.2554 133.978 35.2554 133.72Z" fill="white"/>
    <path d="M172.042 153.006H19.2437L19.6612 152.502C25.5305 145.353 34.2976 134.592 34.9484 133.634V133.413H157.221L157.307 133.535L172.042 153.006ZM20.5453 152.392H170.814L156.927 134.027H35.3904C34.8133 134.862 32.1979 138.179 20.5453 152.392Z" fill="black"/>
    <path d="M66.2473 68.3558C66.2473 71.9427 64.4668 75.1243 61.7286 77.0284C60.0096 78.2445 57.9099 78.957 55.6506 78.957C52.409 78.957 49.4989 77.4952 47.5711 75.198C45.9994 73.3554 45.0662 70.96 45.0662 68.368C45.0662 62.5208 49.8058 57.7668 55.6629 57.7668C61.5199 57.7668 66.2473 62.4962 66.2473 68.3558Z" fill="#FF6100"/>
    <path d="M55.6506 79.2518C52.4335 79.2518 49.4006 77.8391 47.3378 75.3823C45.6801 73.4291 44.7592 70.9232 44.7592 68.3435C44.7592 62.3365 49.6462 57.4352 55.6629 57.4352C61.6795 57.4352 66.5665 62.3243 66.5665 68.3435C66.5665 71.8936 64.8229 75.2349 61.9128 77.2618C60.071 78.5639 57.9099 79.2518 55.6506 79.2518ZM55.6506 58.0617C49.9777 58.0617 45.3609 62.6805 45.3609 68.3558C45.3609 70.788 46.2204 73.1466 47.7921 74.9892C49.7444 77.3109 52.6054 78.6376 55.6383 78.6376C57.7748 78.6376 59.8131 77.9865 61.5444 76.7704C64.2949 74.8541 65.928 71.7093 65.928 68.3558C65.9403 62.6805 61.3234 58.0617 55.6506 58.0617Z" fill="#001133"/>
    <path d="M61.6673 76.9668C59.9482 78.183 57.8485 78.8955 55.5892 78.8955C52.3476 78.8955 49.4375 77.4336 47.5097 75.1365C49.5971 72.8394 52.4704 72.0532 52.4704 72.0532L52.7037 68.9822C52.6791 68.8593 52.6423 68.7488 52.6177 68.6382C51.9915 65.69 53.1703 63.8965 53.6 63.356C53.6737 63.2578 53.9684 62.8892 54.0789 62.8401C57.4679 61.0098 58.8308 62.8155 59.3588 64.3019C59.6412 65.1004 59.7026 65.8129 59.7026 65.8129C60.0096 70.3703 58.1801 70.9599 57.21 70.9599C56.8785 70.9599 56.6452 70.8862 56.6452 70.8862L56.7311 72.2497V72.262H56.7557C60.1692 72.9254 61.3112 75.1611 61.6673 76.9668Z" fill="white"/>
    <path d="M55.5892 79.1903C52.3721 79.1903 49.3392 77.7776 47.2764 75.3208L47.1045 75.112L47.2887 74.9154C49.106 72.9131 51.4758 72.041 52.188 71.8076L52.409 68.9945L52.3967 68.9576C52.3721 68.8594 52.3476 68.7734 52.3353 68.6874C51.6968 65.6778 52.851 63.8106 53.379 63.1473C53.4649 63.0367 53.7719 62.6436 53.9561 62.5453C55.4296 61.7469 56.6943 61.538 57.7134 61.9311C58.5852 62.2628 59.2606 63.0367 59.6658 64.1668C59.9605 65.0022 60.0219 65.7269 60.0219 65.7515C60.1692 67.9872 59.8377 69.5719 59.0027 70.4563C58.3028 71.1934 57.4679 71.2671 56.9767 71.2179L57.0258 71.9673C60.4639 72.7412 61.6181 75.0629 61.9742 76.8932L62.0111 77.0897L61.8514 77.2003C60.0096 78.5147 57.8485 79.1903 55.5892 79.1903ZM47.9149 75.1366C49.855 77.3354 52.6423 78.5761 55.5892 78.5761C57.652 78.5761 59.6289 77.9742 61.3234 76.8195C60.9428 75.1734 59.8254 73.1711 56.6943 72.5323H56.3873L56.4242 72.2252L56.3137 70.4195L56.7434 70.5546C56.7434 70.5546 57.7871 70.874 58.5607 70.0386C59.2606 69.3016 59.543 67.8275 59.4079 65.7883C59.4079 65.7883 59.3588 65.1127 59.0887 64.3634C58.7326 63.3929 58.1923 62.7542 57.4924 62.4839C56.6452 62.1645 55.5524 62.3611 54.2385 63.0735C54.1894 63.1104 53.9807 63.3561 53.8579 63.5035C53.379 64.1054 52.3476 65.7883 52.9247 68.54L53.0106 68.9331L52.7528 72.2621L52.544 72.3235C52.5072 72.3481 49.8918 73.0851 47.9149 75.1366Z" fill="#001133"/>
    <path d="M56.6206 70.5669C56.6206 70.5669 55.6506 70.1001 55.2699 69.4122C55.2699 69.4122 55.0121 71.1197 56.7066 71.9796L56.6206 70.5669Z" fill="black"/>
    <path d="M53.379 66.378L52.7282 68.7734C51.8318 67.8644 51.5249 65.2479 51.5249 65.2479C51.2056 60.3465 57.1118 61.317 57.2346 61.3415C58.5238 60.9607 59.4079 61.4889 59.8745 61.9066C60.1569 62.1523 60.2674 62.5454 60.1692 62.9139C59.3956 65.9481 55.7857 64.3757 55.7857 64.3757C55.8102 65.0513 54.4227 65.7884 54.4227 65.7884C54.4227 65.7884 53.3299 64.7197 53.379 66.378Z" fill="black"/>
    <path d="M54.7665 72.9132C53.2931 72.9132 52.3599 72.3481 52.2985 72.3113L52.6177 71.7831C52.63 71.7954 54.3245 72.7904 56.6452 71.9551L56.8539 72.5324C56.0804 72.8149 55.3805 72.9132 54.7665 72.9132Z" fill="#001133"/>
    <path d="M147.411 61.5627H86.004V64.2038H147.411V61.5627Z" fill="#FF6100"/>
    <path d="M147.411 69.9036H86.004V72.5447H147.411V69.9036Z" fill="#FF6100"/>
    <path d="M147.411 87.6787H86.004V90.3198H147.411V87.6787Z" fill="#EFEFEF"/>
    <path d="M147.411 96.0197H86.004V98.6607H147.411V96.0197Z" fill="#EFEFEF"/>
    <path d="M147.411 104.569H86.004V107.211H147.411V104.569Z" fill="#EFEFEF"/>
    <path d="M147.411 112.91H86.004V115.551H147.411V112.91Z" fill="#EFEFEF"/>
    </g>
    <defs>
    <clipPath id="clip0_3646_288">
    <rect width="192" height="192" fill="white"/>
    </clipPath>
    </defs>
</svg>
