<svg width="192" height="192" viewBox="0 0 192 192" fill="none" xmlns="http://www.w3.org/2000/svg">
    <g clip-path="url(#clip0_2197_459)">
    <rect width="192" height="192" fill="white"/>
    <path fill-rule="evenodd" clip-rule="evenodd" d="M110.233 10.4398C133.055 16.1141 147.081 34.5539 156.71 52.4125C165.292 68.329 169.062 86.5911 158.65 100.233C149.263 112.524 126.565 108.344 109.843 113.797C82.0899 122.851 58.4838 156.673 31.9164 141.567C5.84838 126.743 33.4244 96.225 36.3956 72.0366C38.453 55.2648 32.2627 36.6082 46.2363 24.9537C62.1007 11.7122 86.7249 4.59527 110.233 10.4398Z" fill="#FF6100" fill-opacity="0.15"/>
    <g clip-path="url(#clip1_2197_459)">
    <path d="M83.4093 52.0199L81.6432 49.0796L77.5098 49.0326L73.8274 52.1796V57.7502L76.1571 60.5308L81.0138 59.5445" fill="white"/>
    <path d="M76.1571 60.7657C76.0913 60.7657 76.0256 60.7375 75.9786 60.6811L73.6395 57.9005C73.6019 57.8629 73.5831 57.8066 73.5831 57.7502V52.1796C73.5831 52.1138 73.6113 52.0481 73.6677 52.0011L77.3501 48.8541C77.3971 48.8165 77.4629 48.8165 77.5098 48.7977L81.6432 48.8447C81.7277 48.8447 81.8029 48.8917 81.8405 48.9574L83.6065 51.9071C83.6723 52.0199 83.6347 52.1608 83.522 52.2265C83.4093 52.2923 83.2683 52.2547 83.2026 52.142L81.5117 49.305L77.5944 49.2674L74.0622 52.2829V57.6563L76.251 60.2678L80.9668 59.3096C81.0889 59.2908 81.2204 59.366 81.2392 59.4975C81.2674 59.6196 81.1829 59.7511 81.0514 59.7699L76.1947 60.7563C76.1947 60.7657 76.1759 60.7657 76.1571 60.7657Z" fill="#001038"/>
    <path d="M70.2858 83.8844L98.8342 85.782L105.354 120.718L105.795 171.624L62.564 171.596L70.2858 83.8844Z" fill="white"/>
    <path d="M106.03 171.859L62.3103 171.831L62.3291 171.577L70.0697 83.6307L70.2952 83.6495L99.022 85.5565L99.0596 85.735L105.579 120.671L106.03 171.859ZM62.827 171.361L105.56 171.389L105.119 120.718L98.6369 85.998L70.5019 84.1286L62.827 171.361Z" fill="#001038"/>
    <path d="M30.2486 171.709C30.2486 171.709 13.9219 96.3971 59.4827 85.068L70.0134 81.6486L79.2289 171.709H30.2486Z" fill="white"/>
    <path d="M79.492 171.944H30.0608L30.0232 171.756C29.9856 171.568 25.9556 152.658 27.5526 132.611C28.492 120.821 31.1599 110.948 35.4999 103.264C40.9297 93.6352 48.9803 87.4352 59.4358 84.8331L70.2295 81.3291L70.2577 81.6203L79.492 171.944ZM30.4459 171.474H78.9753L69.8162 81.9585L59.5579 85.2934C49.2152 87.8673 41.2678 93.9828 35.9039 103.499C31.6108 111.127 28.9523 120.934 28.0223 132.649C26.5099 151.559 30.0326 169.464 30.4459 171.474Z" fill="#001038"/>
    <path d="M83.1368 52.9406C83.1462 53.0251 83.1556 53.119 83.1556 53.2224C83.1462 53.2224 83.1368 53.119 83.1368 52.9406Z" fill="#001038"/>
    <path d="M82.9114 53.2411C82.9114 53.2411 82.902 53.1378 82.8926 52.9499L83.3623 52.9124C83.3717 53.0157 83.3811 53.1096 83.3811 53.2224L82.9114 53.2411Z" fill="black"/>
    <path d="M69.5344 84.5231L69.9947 85.0492L71.7984 87.0971C87.2233 99.1966 98.5713 86.6462 98.5713 86.6462L98.7216 74.2461C112.183 73.6449 108.858 43.6968 108.858 43.6968C108.801 43.5935 108.754 43.4996 108.707 43.4056C98.5994 24.1761 86.0209 37.8068 86.0209 37.8068C82.733 41.0947 83.043 50.686 83.1369 52.5366" fill="white"/>
    <path d="M85.26 92.5644C81.3145 92.5644 76.6926 91.2305 71.6575 87.285L69.3559 84.6829C69.2714 84.5889 69.2808 84.4386 69.3747 84.3541C69.4687 84.2695 69.619 84.2789 69.7035 84.3729L71.9769 86.9468C76.2981 90.3287 83.1087 93.842 90.8776 91.1929C95.1612 89.7368 97.9043 87.0032 98.3364 86.5523L98.4867 74.2461C98.4867 74.124 98.59 74.0207 98.7122 74.0113C100.948 73.908 102.846 72.9592 104.367 71.1837C110.614 63.8752 108.736 44.8054 108.632 43.7626L108.501 43.509C105.288 37.3841 101.493 33.9929 97.2279 33.4386C91.197 32.6401 86.2463 37.9102 86.19 37.9665C82.9866 41.1699 83.2684 50.6578 83.3624 52.5272C83.3718 52.6587 83.2684 52.7621 83.1369 52.7715C83.0054 52.7621 82.9021 52.6775 82.8927 52.546C82.7987 50.639 82.5075 40.9726 85.8518 37.6377C85.8988 37.5908 90.9997 32.1329 97.2843 32.9689C101.709 33.5514 105.617 37.0271 108.914 43.2929L109.064 43.5935C109.074 43.6217 109.083 43.6499 109.093 43.6781C109.102 43.725 109.647 48.7696 109.384 54.6691C109.036 62.6258 107.467 68.2903 104.724 71.5031C103.165 73.3255 101.23 74.3213 98.9564 74.481L98.8061 86.665C98.8061 86.7214 98.7873 86.7777 98.7497 86.8247C98.6746 86.8905 93.4046 92.5644 85.26 92.5644Z" fill="#001038"/>
    <path d="M108.933 43.4526C107.834 44.5893 106.265 44.3826 104.518 43.7063C103.024 43.1332 101.615 42.2878 100.037 41.9966C97.5566 41.5456 95.0108 42.5414 92.9066 43.9411C90.8023 45.3408 88.9987 47.1445 86.932 48.5911C85.3256 49.709 83.8508 50.7048 83.1932 52.6118C83.1744 52.6493 83.1274 52.6587 83.1086 52.6118C82.6483 51.6066 80.5159 50.5921 79.5295 51.3906C74.2971 55.5991 80.5065 58.9715 81.0138 59.2345C81.0326 59.2439 81.042 59.2627 81.0326 59.2909C76.7865 74.4904 70.004 83.8844 69.5719 84.4762C69.5625 84.495 69.5625 84.5138 69.5719 84.5326L69.9758 84.9929C69.9946 85.0117 69.9946 85.0492 69.9664 85.068C66.9416 87.1817 62.9773 87.8111 59.2291 87.7641C56.2982 87.7265 53.2733 87.3038 50.7933 85.7538C48.3133 84.2038 46.4909 81.3104 46.923 78.4171C47.2706 76.0874 48.9239 74.1804 50.6618 72.5928C52.6815 70.7422 54.8891 69.117 56.9276 67.2946C58.6185 65.7822 60.2906 63.8564 60.2155 61.5924C60.1403 59.5445 58.6655 57.863 57.6697 56.0688C55.3964 51.9824 55.6594 46.609 58.3273 42.7669C60.4503 39.7044 63.8322 37.7223 67.3079 36.3602C70.7837 34.998 74.438 34.1526 77.9138 32.781C79.3792 32.1986 80.8353 31.5223 82.0189 30.4795C85.025 27.8398 85.8987 23.3213 88.9987 20.8037C91.1875 19.0282 94.2969 18.5398 96.9742 19.3852C99.6609 20.2307 101.878 22.3443 103.033 24.9089C103.991 27.0601 104.283 29.5495 105.739 31.4095C107.176 33.2414 109.647 34.2841 110.492 36.4729C111.244 38.4268 110.455 40.8129 109.553 42.5696C109.355 42.936 109.149 43.2178 108.933 43.4526Z" fill="#001038"/>
    <path d="M79.8114 153.015C79.8114 153.015 82.3102 164.532 80.9011 171.596L79.8114 153.015Z" fill="white"/>
    <path d="M81.1265 171.643L80.6662 171.549C82.0566 164.616 79.6047 153.174 79.5765 153.062L80.0368 152.958C80.065 153.08 82.5356 164.616 81.1265 171.643Z" fill="black"/>
    <path d="M98.8624 74.1428C98.8624 74.1428 94.6163 74.5186 91.2439 71.9916L98.7121 78.4922L98.8624 74.1428Z" fill="#001038"/>
    <path d="M98.6934 84.8049C98.6934 84.8049 100.535 147.219 102.911 171.709L139.52 171.624C139.51 171.624 128.97 100.869 98.6934 84.8049Z" fill="white"/>
    <path d="M102.695 171.944L102.676 171.728C100.337 147.51 98.4773 85.4343 98.4585 84.8143L98.4491 84.4104L98.8061 84.5983C114.522 92.9308 124.818 116.153 130.689 134.161C137.04 153.654 139.726 171.408 139.754 171.587L139.792 171.859H139.52L102.695 171.944ZM98.9376 85.2089C99.0973 90.6292 100.882 148.167 103.118 171.474L139.238 171.389C138.477 166.617 127.561 100.887 98.9376 85.2089Z" fill="#001038"/>
    <path d="M181.407 171.483L187.476 115.326H117.735L110.624 171.624C110.624 171.624 181.013 171.624 181.389 171.624L181.407 171.483Z" fill="#FF6100"/>
    <path d="M68.2192 83.4991C68.2192 83.4991 54.2973 85.594 51.9863 87.8391L64.4522 104.072L58.0548 105.387L74.3534 124.138L70.1919 83.02L68.2192 83.4991Z" fill="white"/>
    <path d="M74.6729 124.842L57.6134 105.237L64.0389 103.912L51.6764 87.811L51.8267 87.6607C54.147 85.4062 67.4771 83.3677 68.1816 83.2643L70.408 82.7195L70.4362 82.9919L74.6729 124.842ZM58.4964 105.528L74.0529 123.414L69.9947 83.3019L68.2568 83.7246C68.1253 83.7434 54.9549 85.7444 52.3058 87.858L64.875 104.213L58.4964 105.528Z" fill="#001038"/>
    <path d="M96.2885 169.154H110.952L110.633 171.615H96.2885V169.154Z" fill="#FF6100"/>
    <path d="M98.6934 84.8049C98.6934 84.8049 104.677 88.2901 108.322 92.4141L103.71 101.911H109.478L100.121 123.518L98.6934 84.8049Z" fill="white"/>
    <path d="M99.924 124.56L98.4397 84.3916L98.8061 84.6077C98.8624 84.6452 104.865 88.1586 108.491 92.2638L108.595 92.3765L104.076 101.677H109.825L99.924 124.56ZM98.947 85.2277L100.318 122.465L109.121 102.146H103.334L108.04 92.4517C104.978 89.0416 100.281 86.0543 98.947 85.2277Z" fill="#001038"/>
    <path d="M153.629 147.096C155.881 147.096 157.706 145.271 157.706 143.02C157.706 140.768 155.881 138.943 153.629 138.943C151.378 138.943 149.552 140.768 149.552 143.02C149.552 145.271 151.378 147.096 153.629 147.096Z" fill="white"/>
    <path d="M102.197 156.697L106.5 157.421C106.885 157.486 107.11 157.9 106.951 158.257C106.753 158.689 106.199 159.196 104.799 159.421L103.569 157.947L102.197 156.697Z" fill="white"/>
    <path d="M104.706 159.684L103.39 158.106L101.455 156.34L106.547 157.204C106.81 157.251 107.026 157.411 107.148 157.637C107.27 157.862 107.279 158.134 107.167 158.36C106.857 159.018 106.077 159.459 104.837 159.666L104.706 159.684ZM102.949 157.064L103.729 157.777L104.893 159.177C105.88 158.999 106.519 158.651 106.744 158.163C106.791 158.069 106.782 157.956 106.735 157.853C106.678 157.749 106.584 157.684 106.472 157.655L102.949 157.064Z" fill="#001038"/>
    <path d="M88.172 156.716C88.172 156.716 104.189 151.888 108.172 162.437C108.172 162.437 109.919 167.97 101.493 159.252C102.31 160.098 103.184 160.896 103.992 161.761C104.64 162.456 105.26 163.179 105.823 163.94C106.246 164.513 106.725 165.161 106.875 165.866C107.054 166.645 106.434 166.908 105.758 166.908C104.198 166.899 103.174 165.358 102.235 164.316C101.587 163.611 100.948 162.897 100.3 162.193C100.29 162.183 100.281 162.165 100.272 162.155C101.089 163.057 101.812 164.09 102.479 165.095C103.043 165.941 103.672 166.871 103.916 167.885C104.114 168.693 103.522 169.144 102.77 169.06C102.132 168.985 101.474 168.599 101.032 168.13C100.412 167.472 99.8957 166.805 99.1254 166.307C98.2424 165.744 97.2372 165.405 96.2039 165.274C94.4942 165.058 92.7469 165.312 91.0936 165.772L86.5469 167.087L88.172 156.716Z" fill="white"/>
    <path d="M102.968 169.304C102.902 169.304 102.827 169.304 102.751 169.295C102.103 169.219 101.38 168.834 100.873 168.289C100.741 168.148 100.619 168.017 100.497 167.876C100.037 167.359 99.5951 166.88 99.0127 166.505C98.1954 165.978 97.2466 165.65 96.1945 165.509C94.7102 165.311 93.0663 165.481 91.1781 165.997L86.2744 167.406L87.9747 156.528L88.1156 156.491C88.2753 156.444 104.395 151.728 108.397 162.352C108.454 162.521 108.858 163.874 108.153 164.288C107.815 164.485 107.223 164.522 105.795 163.508C105.87 163.611 105.945 163.705 106.021 163.808C106.453 164.4 106.951 165.067 107.12 165.819C107.223 166.27 107.092 166.551 106.96 166.711C106.735 166.993 106.321 167.143 105.795 167.143C105.786 167.143 105.786 167.143 105.776 167.143C104.724 167.134 103.926 166.514 103.231 165.781C103.635 166.42 103.991 167.106 104.17 167.829C104.273 168.252 104.198 168.637 103.954 168.909C103.71 169.163 103.362 169.304 102.968 169.304ZM94.9357 164.964C95.3866 164.964 95.8187 164.992 96.2414 165.048C97.3687 165.189 98.3833 165.556 99.2569 166.11C99.8957 166.523 100.356 167.031 100.845 167.566C100.967 167.698 101.089 167.838 101.211 167.97C101.643 168.43 102.254 168.759 102.798 168.825C103.137 168.862 103.418 168.787 103.578 168.599C103.719 168.44 103.757 168.214 103.691 167.942C103.456 166.984 102.874 166.101 102.301 165.255C101.643 164.269 100.929 163.254 100.149 162.381L100.121 162.352C100.112 162.343 100.102 162.324 100.093 162.315L100.441 161.995C100.441 161.995 100.441 161.995 100.45 162.005L102.413 164.165C102.564 164.335 102.723 164.513 102.874 164.701C103.663 165.621 104.555 166.674 105.758 166.683H105.767C106.143 166.683 106.434 166.589 106.565 166.42C106.659 166.307 106.678 166.138 106.631 165.922C106.481 165.265 106.021 164.635 105.617 164.09C105.138 163.433 104.574 162.766 103.794 161.93C103.635 161.761 103.475 161.591 103.306 161.422C102.714 160.868 102.056 160.211 101.314 159.44C101.305 159.431 101.305 159.431 101.295 159.421L101.634 159.093C101.981 159.45 102.338 159.807 102.705 160.154C103.005 160.445 103.306 160.737 103.606 161.047C106.819 164.09 107.683 164.015 107.89 163.893C108.162 163.733 108.078 162.972 107.928 162.512C104.273 152.827 89.9475 156.472 88.3599 156.913L86.8193 166.768L91.0184 165.556C92.4557 165.152 93.7426 164.964 94.9357 164.964Z" fill="#001038"/>
    <path d="M51.9958 119.459C51.9958 119.459 57.8952 141.084 57.8952 157.27C57.8952 157.27 76.9556 152.733 88.4445 151.671C88.4445 151.671 91.7699 162.869 89.196 171.643L30.2487 171.756" fill="white"/>
    <path d="M30.2486 172C30.1171 172 30.0138 171.897 30.0138 171.765C30.0138 171.634 30.1171 171.53 30.2486 171.53L89.0175 171.418C91.272 163.451 88.6793 153.409 88.266 151.934C76.8992 153.015 58.13 157.458 57.9421 157.505C57.8764 157.524 57.8012 157.505 57.7449 157.458C57.6885 157.411 57.6603 157.345 57.6603 157.27C57.6603 141.3 51.8267 119.741 51.7703 119.525C51.7327 119.403 51.8079 119.271 51.9394 119.234C52.0709 119.196 52.193 119.271 52.2306 119.403C52.287 119.619 58.0643 140.981 58.1394 156.979C60.5819 156.406 77.8292 152.423 88.4351 151.446C88.529 151.437 88.6511 151.502 88.6793 151.615C88.7169 151.728 91.9954 162.982 89.4402 171.718C89.412 171.822 89.3181 171.887 89.2148 171.887L30.2486 172Z" fill="#001038"/>
    <path d="M52.0239 119.431L62.8928 156.002L57.8952 157.27L52.0239 119.431Z" fill="#001038"/>
    <path d="M17.1723 165.65C14.1192 165.65 10.4274 163.987 9.29073 160.821C8.7177 159.215 8.99012 157.43 10.0422 155.927C11.2541 154.208 13.2456 153.137 15.2371 153.137C15.7538 153.137 16.1765 153.56 16.1765 154.076C16.1765 154.593 15.7538 155.016 15.2371 155.016C13.8656 155.016 12.4283 155.795 11.5735 157.007C11.1601 157.59 10.5495 158.783 11.0568 160.182C11.9023 162.54 14.7674 163.771 17.1723 163.771C17.689 163.771 18.1117 164.194 18.1117 164.71C18.1117 165.227 17.689 165.65 17.1723 165.65Z" fill="#001038"/>
    <path d="M43.0903 152.733V157.43C43.0903 165.199 36.787 171.502 29.0181 171.502C25.7208 171.502 22.696 170.365 20.2911 168.468C17.0314 165.885 14.9459 161.901 14.9459 157.43V152.733H43.0903Z" fill="white"/>
    <path d="M29.0181 171.728C25.7584 171.728 22.696 170.666 20.1502 168.646C16.6932 165.913 14.7111 161.817 14.7111 157.42V152.723C14.7111 152.592 14.8144 152.489 14.9459 152.489H43.0903C43.2218 152.489 43.3252 152.592 43.3252 152.723V157.42C43.3252 165.311 36.9091 171.728 29.0181 171.728ZM15.1808 152.968V157.43C15.1808 161.685 17.0971 165.64 20.4414 168.289C22.9026 170.234 25.8711 171.267 29.0181 171.267C36.646 171.267 42.8555 165.058 42.8555 157.43V152.968H15.1808Z" fill="#001038"/>
    <path d="M184.62 171.859H0.23485C0.103334 171.859 0 171.756 0 171.624C0 171.493 0.103334 171.389 0.23485 171.389H184.62C184.752 171.389 184.855 171.493 184.855 171.624C184.855 171.756 184.752 171.859 184.62 171.859Z" fill="#001038"/>
    <path d="M43.0902 152.968V157.421C43.0902 165.189 36.7869 171.493 29.018 171.493C25.7207 171.493 22.6959 170.356 20.291 168.458C20.4883 168.421 20.6762 168.383 20.864 168.336C22.5456 167.876 24.105 167.031 25.608 166.157C31.9114 162.456 37.792 158.022 43.0902 152.968Z" fill="#001038"/>
    </g>
    </g>
    <defs>
    <clipPath id="clip0_2197_459">
    <rect width="192" height="192" fill="white"/>
    </clipPath>
    <clipPath id="clip1_2197_459">
    <rect width="187.476" height="153" fill="white" transform="translate(0 19)"/>
    </clipPath>
    </defs>
</svg>
