<svg width="192" height="192" viewBox="0 0 192 192" fill="none" xmlns="http://www.w3.org/2000/svg">
    <path fill-rule="evenodd" clip-rule="evenodd" d="M172.816 74.1405C175.676 97.4836 163.468 117.174 150.231 132.551C138.434 146.255 122.727 156.305 106.264 151.457C91.4294 147.084 87.2193 124.392 76.1494 110.724C57.773 88.041 17.7473 78.085 22.3576 47.8733C26.8841 18.2284 65.2429 33.0731 88.8952 27.2013C105.294 23.1274 120.505 10.6769 136.385 19.5611C154.422 29.6438 169.872 50.0969 172.816 74.1405Z" fill="#FF6100" fill-opacity="0.15"/>
    <g clip-path="url(#clip0_2377_59)">
    <path d="M126.924 48.3533C127.261 48.8931 127.608 49.51 127.483 50.1366C127.377 50.6957 126.895 51.1294 126.365 51.3512C125.834 51.5632 125.246 51.6018 124.678 51.6307C123.347 51.7078 122.017 51.7753 120.687 51.8524C120.118 50.7824 119.549 49.7124 118.981 48.6425C121.198 48.7003 123.347 47.8135 125.198 46.5796C125.584 46.3193 125.989 46.0109 126.133 45.5674C126.345 45.4325 126.654 45.5674 126.769 45.7988C126.885 46.0205 126.779 46.2904 126.692 46.5314C126.606 46.7724 126.268 47.0037 126.181 47.2447C127.676 46.7724 129.449 46.2904 130.943 45.8181C131.078 45.7699 131.348 45.6638 131.493 45.741C131.637 45.8181 131.608 46.0398 131.522 46.1555C131.435 46.2615 131.3 46.329 131.175 46.3868C129.748 47.0423 128.331 47.6978 126.924 48.3533Z" fill="white"/>
    <path d="M120.687 52.103C120.6 52.103 120.513 52.0548 120.475 51.9777L118.769 48.7677C118.73 48.6906 118.73 48.6039 118.778 48.5268C118.826 48.4496 118.884 48.3918 118.99 48.4111C120.928 48.4689 123.01 47.7652 125.063 46.3964C125.401 46.1651 125.776 45.8952 125.902 45.5096C125.921 45.4517 125.96 45.4132 126.008 45.3746C126.152 45.2879 126.336 45.259 126.509 45.3072C126.712 45.365 126.895 45.5096 126.981 45.6927C127.136 46.0012 127.02 46.3193 126.924 46.5796C126.895 46.6567 126.856 46.7242 126.818 46.7916C127.357 46.6278 127.916 46.4639 128.476 46.3C129.295 46.059 130.114 45.818 130.866 45.5867C131.107 45.5096 131.387 45.4132 131.599 45.5289C131.714 45.5867 131.792 45.6927 131.82 45.8277C131.849 45.9916 131.811 46.1747 131.705 46.3097C131.579 46.4639 131.406 46.5507 131.271 46.6085C129.941 47.2254 128.601 47.8423 127.271 48.4689C127.579 48.9895 127.839 49.5775 127.724 50.1944C127.608 50.792 127.136 51.3126 126.461 51.5825C125.892 51.8138 125.285 51.8524 124.697 51.8813L120.706 52.103C120.696 52.103 120.687 52.103 120.687 52.103ZM119.376 48.8834L120.822 51.6018L124.658 51.3897C125.208 51.3608 125.776 51.3319 126.268 51.1294C126.673 50.9656 127.136 50.6089 127.242 50.0884C127.348 49.5485 127.039 48.9991 126.712 48.4786C126.673 48.4207 126.663 48.3532 126.683 48.2858C126.702 48.2183 126.75 48.1701 126.808 48.1315C128.215 47.476 129.632 46.8109 131.049 46.1651C131.155 46.1169 131.252 46.0687 131.31 46.0012C131.329 45.9819 131.338 45.9337 131.338 45.9144C131.319 45.9337 131.136 45.9916 131.059 46.0205L131.001 46.0398C130.249 46.2807 129.42 46.5217 128.601 46.7627C127.791 47.0037 126.981 47.2351 126.239 47.4664C126.152 47.4953 126.056 47.4664 125.998 47.4086C125.931 47.3411 125.911 47.2447 125.94 47.1579C125.998 46.9941 126.123 46.8495 126.239 46.7145C126.326 46.6181 126.413 46.5121 126.442 46.4446C126.519 46.2229 126.596 46.0301 126.528 45.9048C126.49 45.8373 126.422 45.7795 126.355 45.7602C126.336 45.7602 126.316 45.7506 126.297 45.7506C126.114 46.194 125.709 46.5025 125.304 46.7724C123.328 48.1219 121.284 48.8449 119.376 48.8834Z" fill="#001133"/>
    <path d="M71.5637 55.3515L73.0097 50.6185C73.0097 50.6185 78.9958 52.0644 77.1643 42.2128C77.1643 42.2128 76.5859 35.2627 70.0214 37.4798C70.0214 37.4798 66.4452 36.9979 66.3488 45.7891L65.7704 49.0762L71.5637 55.3515Z" fill="white"/>
    <path d="M71.6698 55.8239L65.5101 49.1533L66.1078 45.7506C66.156 40.8151 67.3416 38.7523 68.3249 37.904C69.0768 37.2582 69.7708 37.2292 69.9829 37.2485C71.9686 36.593 73.617 36.6798 74.899 37.5184C77.1161 38.9643 77.3957 42.0683 77.4053 42.1936C78.1186 45.9916 77.7523 48.6232 76.3257 49.9727C75.1882 51.0523 73.7326 50.9656 73.1832 50.8884L71.6698 55.8239ZM66.0307 48.9991L71.4577 54.8792L72.8458 50.3293L73.0675 50.3872C73.0868 50.3872 74.7833 50.7824 75.9979 49.6257C77.28 48.4111 77.5981 45.8566 76.933 42.2611C76.9233 42.2032 76.6534 39.2343 74.6484 37.9136C73.482 37.1521 71.959 37.0846 70.0985 37.7112L70.0407 37.7305L69.9829 37.7208C69.954 37.7208 69.337 37.6534 68.6237 38.2799C67.7272 39.0704 66.638 41.0176 66.5898 45.7891L66.0307 48.9991Z" fill="#001133"/>
    <path d="M4.27039 132.15L9.96734 143.515L192 116.341L191.663 116.061L4.65597 126.057L4.27039 132.15Z" fill="#D04805"/>
    <path d="M71.9012 66.1189C71.9012 66.1189 115.636 55.901 122.673 52.0452C122.933 51.9006 123.029 51.5921 122.914 51.3222L121.535 48.1605L72.3736 56.3541C72.3736 56.3444 66.3874 59.1881 71.9012 66.1189Z" fill="white"/>
    <path d="M71.8048 66.3888L71.7084 66.2731C69.7516 63.8151 68.9901 61.5787 69.4432 59.6315C70.0023 57.2409 72.1711 56.1806 72.2579 56.142L72.3254 56.1227L121.68 47.9002L123.126 51.2355C123.299 51.6211 123.145 52.0645 122.779 52.2669C115.79 56.0938 73.7327 65.9454 71.9494 66.3599L71.8048 66.3888ZM72.4507 56.5758C72.2001 56.7011 70.3878 57.7036 69.9251 59.7279C69.5203 61.5016 70.2143 63.5548 71.9976 65.8394C74.8124 65.1742 115.838 55.5058 122.557 51.8235C122.702 51.7464 122.759 51.5632 122.692 51.409L121.391 48.4207L72.4507 56.5758Z" fill="#001133"/>
    <path d="M65.597 48.787L70.4167 54.1659C71.7566 55.66 72.5374 57.5783 72.6049 59.593C72.6916 62.4559 72.5663 66.919 71.4385 71.7773C70.8409 74.38 69.848 76.8863 68.5466 79.219C66.5995 82.6989 63.2064 89.4947 63.5534 94.0157C63.5534 94.0157 57.0949 97.0136 42.9055 93.071C42.9055 93.0614 46.6842 54.3009 65.597 48.787Z" fill="white"/>
    <path d="M56.2466 95.3556C52.9595 95.3556 48.5157 94.8736 42.8381 93.3024L42.6453 93.2445L42.6645 93.0421C42.7031 92.6565 46.6842 54.0502 65.5295 48.5557L65.6741 48.5172L70.5902 54.0117C71.9783 55.5636 72.7784 57.5397 72.8362 59.593C72.923 62.4945 72.788 66.9672 71.6699 71.8352C71.0722 74.4282 70.089 76.9537 68.7491 79.3443C66.7537 82.9206 63.4473 89.5815 63.7847 94.0061L63.7944 94.1699L63.6401 94.2374C63.4859 94.3049 61.1339 95.3556 56.2466 95.3556ZM43.1658 92.8879C55.7839 96.3581 62.2521 94.2567 63.2931 93.8518C63.0521 89.302 66.3296 82.67 68.3346 79.0937C69.6456 76.7417 70.6192 74.2547 71.2072 71.7098C72.3157 66.8901 72.4507 62.4559 72.3639 59.593C72.3061 57.6554 71.5542 55.7854 70.2432 54.3201L65.5295 49.057C47.8024 54.4165 43.4935 89.8707 43.1658 92.8879Z" fill="#001133"/>
    <path d="M0 180.26L192 116.341L3.9522 141.914L0 180.26Z" fill="#FF6100"/>
    <path d="M5.2439 105.14L191.663 116.061L4.07751 131.87L5.2439 105.14Z" fill="#FF6100"/>
    <path d="M63.5437 94.006C63.5437 94.006 86.3894 74.486 91.0645 82.3807C91.7007 83.4507 91.7393 84.7713 91.3248 85.9377L80.6731 119.676L75.3328 112.61L78.7356 95.9339L71.3806 105.92L63.5437 94.006Z" fill="white"/>
    <path d="M80.7695 120.206L75.0822 112.678L78.2825 96.9653L71.371 106.345L63.2256 93.9675L63.3895 93.8325C64.0931 93.2349 80.7502 79.0744 88.3847 80.3564C89.6764 80.5685 90.65 81.2144 91.2766 82.2747C91.9128 83.3543 92.0188 84.7232 91.5561 86.0341L80.7695 120.206ZM75.5931 112.552L80.5864 119.165L91.1031 85.8703C91.5176 84.6942 91.4308 83.47 90.8621 82.5061C90.303 81.5614 89.4644 81.0119 88.3076 80.8191C81.2901 79.6624 65.6355 92.5697 63.8714 94.0542L71.3999 105.496L79.1983 94.9121L75.5931 112.552Z" fill="#001133"/>
    <path d="M23.1252 172.578L28.5427 181.398L192 116.341L23.1252 172.578Z" fill="#D04805"/>
    <path d="M73.0868 50.5125C73.0868 50.5125 71.5156 50.0401 70.542 48.5364C70.542 48.5364 70.0118 50.4836 71.959 53.6839L73.0868 50.5125Z" fill="#001133"/>
    <path d="M78.2922 40.2946C78.4175 39.6969 78.5331 39.0607 78.3693 38.4727C78.1958 37.8269 77.6945 37.3063 77.1547 36.8918C75.3907 35.5134 73.1543 34.9254 70.9757 34.3759C70.1275 34.1639 69.2503 33.9421 68.3827 34.0193C67.2935 34.1157 66.3006 34.6458 65.4041 35.2628C63.5533 36.5255 61.9628 38.1546 60.0542 39.3306C58.7046 40.15 57.2105 40.7477 55.6489 41.085C54.1066 41.4128 52.4293 41.4995 51.128 42.3864C49.47 43.5238 48.8627 45.6927 48.9398 47.6785C48.9591 48.1894 49.0169 48.7099 49.229 49.1822C49.4121 49.616 49.7206 49.992 49.9423 50.4065C50.3375 51.1294 50.4918 51.9873 50.3761 52.7971C50.1929 54.1659 49.2868 55.554 49.8363 56.8264C50.299 57.8964 51.61 58.3398 52.7956 58.4458C55.1284 58.6579 57.5286 58.012 59.4372 56.6721C61.3651 55.3226 62.8786 53.2501 65.1631 52.6139C66.0307 52.3729 66.9657 52.3536 67.7754 51.9777C68.7105 51.5343 69.3467 50.6764 69.9058 49.8184C70.9083 48.2858 71.7855 46.3482 70.995 44.6902C70.8119 44.3046 70.5323 43.9383 70.4938 43.5046C70.4649 43.0708 70.8504 42.5792 71.2649 42.7141C71.5156 42.7912 71.6505 43.0611 71.8529 43.2443C72.3542 43.707 73.1736 43.5335 73.7809 43.2154C74.3881 42.8973 74.9858 42.4635 75.6702 42.4731C76.2775 42.4828 77.2607 43.0611 77.7813 42.5984C78.1765 42.2321 78.1958 40.8055 78.2922 40.2946Z" fill="#001133"/>
    <path d="M77.3764 44.9698C77.3764 44.9698 78.697 44.9119 78.0898 40.4874L76.7113 40.4296L77.3764 44.9698Z" fill="#001133"/>
    <path d="M84.0277 133.663C84.0277 133.663 72.682 143.437 45.5757 123.686L84.0277 133.663Z" fill="#001133"/>
    <path d="M90.8526 134.222C98.8808 134.222 105.389 127.714 105.389 119.686C105.389 111.657 98.8808 105.149 90.8526 105.149C82.8243 105.149 76.3162 111.657 76.3162 119.686C76.3162 127.714 82.8243 134.222 90.8526 134.222Z" fill="white"/>
    <path d="M90.8526 134.463C82.7072 134.463 76.0752 127.831 76.0752 119.686C76.0752 111.54 82.7072 104.908 90.8526 104.908C98.998 104.908 105.63 111.54 105.63 119.686C105.63 127.831 98.998 134.463 90.8526 134.463ZM90.8526 105.39C82.9675 105.39 76.5572 111.801 76.5572 119.686C76.5572 127.571 82.9675 133.981 90.8526 133.981C98.7377 133.981 105.148 127.571 105.148 119.686C105.148 111.801 98.7377 105.39 90.8526 105.39Z" fill="#001133"/>
    <path d="M94.5156 124.872C93.8408 125.537 92.9443 125.961 91.8165 126.125V128.111H89.9754V126.154C89.1656 126.096 88.4234 125.932 87.739 125.682C87.0546 125.431 86.4666 125.093 85.9557 124.669L86.7365 122.982C87.3534 123.445 87.98 123.783 88.6066 123.995C89.2428 124.216 89.9272 124.322 90.6598 124.322C91.4791 124.322 92.1057 124.168 92.5491 123.85C92.9925 123.532 93.2142 123.088 93.2142 122.491C93.2142 122.144 93.0889 121.855 92.8479 121.643C92.607 121.421 92.3081 121.257 91.9515 121.122C91.5948 120.997 91.0936 120.852 90.4381 120.679C89.5223 120.447 88.7801 120.216 88.2113 119.985C87.6426 119.753 87.1606 119.387 86.7461 118.895C86.3316 118.404 86.1292 117.758 86.1292 116.929C86.1292 115.965 86.4859 115.136 87.1895 114.451C87.8932 113.767 88.809 113.333 89.9272 113.169V111.213H91.7683V113.179C92.4527 113.266 93.1082 113.43 93.7348 113.69C94.3517 113.941 94.8722 114.259 95.2771 114.635L94.4963 116.322C93.3781 115.444 92.1732 115.001 90.9008 115.001C90.1489 115.001 89.5609 115.165 89.1175 115.493C88.674 115.82 88.4523 116.273 88.4523 116.852C88.4523 117.247 88.5776 117.575 88.8283 117.816C89.0789 118.066 89.4066 118.259 89.7922 118.404C90.1874 118.548 90.708 118.702 91.3731 118.857C92.2503 119.078 92.9636 119.291 93.5131 119.522C94.0625 119.744 94.5252 120.091 94.9108 120.563C95.2964 121.035 95.4892 121.662 95.4892 122.443C95.5277 123.387 95.1904 124.207 94.5156 124.872Z" fill="#001133"/>
    <path d="M42.9055 93.1192C42.8187 93.1385 42.732 93.177 42.6452 93.2252C42.356 93.418 42.2693 93.8036 42.2114 94.1506C41.768 96.7533 41.3246 99.3752 41.4981 102.007C41.6716 104.638 42.5103 107.309 44.3321 109.217C46.0673 111.029 48.4868 111.974 50.781 112.967C57.4708 115.868 63.804 119.628 69.5491 124.11C61.9628 122.076 54.3862 120.042 46.7999 117.999C46.3082 119.927 45.8166 121.845 45.3347 123.773C54.5404 128.776 64.016 133.875 74.4075 135.215C76.7017 135.514 79.073 135.61 81.2901 134.964C83.6036 134.29 86.1677 132.506 86.5918 129.971C87.0834 127.021 84.1723 124.65 82.6782 122.443C78.1379 115.695 73.5977 108.957 69.0575 102.209C67.6791 100.156 66.291 98.1125 64.9125 96.0592C64.2185 95.0182 63.9389 94.3434 62.84 93.9771C61.7604 93.6108 60.0928 93.8518 58.9553 93.8036C53.7885 93.5626 48.6217 93.3313 43.4549 93.0903C43.2718 93.0806 43.0886 93.071 42.9055 93.1192Z" fill="white"/>
    <path d="M77.5982 135.697C76.4415 135.697 75.3522 135.591 74.3882 135.466C63.8233 134.106 53.9428 128.737 45.2287 124.004L45.0648 123.917L46.6361 117.729L46.8674 117.796L68.4503 123.59C62.9751 119.425 57.0082 115.936 50.6943 113.198L50.1352 112.957C48.0049 112.042 45.7974 111.087 44.1683 109.391C42.4911 107.636 41.4596 105.024 41.2668 102.026C41.0933 99.356 41.5464 96.6858 41.9802 94.1121C42.0476 93.7169 42.144 93.2734 42.5103 93.0228C42.6067 92.9553 42.7224 92.9071 42.8477 92.8782C43.0502 92.83 43.2526 92.8397 43.4647 92.8493L58.965 93.5626C59.3217 93.5819 59.7265 93.5626 60.17 93.553C61.0953 93.5241 62.1461 93.4952 62.9269 93.7554C63.939 94.0928 64.3149 94.6808 64.8258 95.4809C64.9222 95.6255 65.0186 95.7701 65.1247 95.9339L82.8903 122.317C83.2566 122.857 83.7097 123.407 84.182 123.995C85.6087 125.73 87.2185 127.706 86.8329 130.019C86.3991 132.632 83.7771 134.502 81.3576 135.205C80.1141 135.572 78.8224 135.697 77.5982 135.697ZM45.6239 123.667C54.2609 128.361 64.0354 133.653 74.4461 134.993C76.3644 135.244 78.8803 135.437 81.2323 134.752C83.4976 134.087 85.9653 132.352 86.3605 129.952C86.7076 127.85 85.2327 126.048 83.8061 124.303C83.3241 123.715 82.8614 123.156 82.4854 122.587L64.7294 96.1942C64.6234 96.0303 64.5174 95.8761 64.4306 95.7315C63.9294 94.9507 63.6305 94.488 62.7823 94.1988C62.0882 93.9675 61.0857 93.9964 60.1989 94.0253C59.7555 94.035 59.341 94.0542 58.965 94.035L43.4647 93.3216C43.2911 93.312 43.1273 93.312 42.9827 93.3409C42.9152 93.3602 42.8574 93.3795 42.8092 93.418C42.6067 93.5626 42.5296 93.8711 42.4814 94.1892C42.0476 96.7437 41.6042 99.3753 41.7681 101.997C41.9513 104.879 42.9345 107.386 44.5443 109.063C46.1059 110.692 48.2651 111.617 50.3569 112.524L50.916 112.765C57.6348 115.676 63.9679 119.435 69.742 123.946L70.677 124.679L47.0216 118.327L45.6239 123.667Z" fill="#001133"/>
    <path d="M62.5895 67.0443L49.0074 79.2479L57.7312 98.3149L54.9646 100.571L40.0041 83.3254C38.6642 81.5614 38.7317 79.113 40.1487 77.4164L55.408 59.2556" fill="white"/>
    <path d="M54.9646 100.812C54.8971 100.812 54.8296 100.783 54.7814 100.725L39.8209 83.4893C38.3942 81.6096 38.4617 79.0551 39.9655 77.2622L55.2345 59.1109C55.3212 59.0145 55.4755 58.9953 55.5719 59.082C55.6779 59.1688 55.6875 59.323 55.6008 59.4194L40.3318 77.5803C38.9726 79.1997 38.9148 81.5035 40.1872 83.1905L54.9839 100.243L57.4227 98.257L48.776 79.3636C48.7375 79.2672 48.7567 79.1515 48.8338 79.084L62.4159 66.8804C62.5123 66.7936 62.6666 66.8033 62.7533 66.8997C62.8401 66.9961 62.8304 67.1503 62.734 67.2371L49.2965 79.3057L57.9432 98.2088C57.9914 98.3052 57.9625 98.4305 57.8757 98.498L55.1092 100.754C55.0706 100.792 55.0128 100.812 54.9646 100.812Z" fill="#001133"/>
    <path d="M41.5174 102.257L41.4885 101.775C43.5514 101.669 45.0744 101.004 46.0191 99.7801C47.3879 98.0064 47.1469 95.558 47.0505 94.8928L42.1922 94.4012L42.2404 93.9193L47.465 94.4494L47.5036 94.6229C47.5325 94.7482 48.1494 97.8329 46.4143 100.069C45.3829 101.409 43.7345 102.142 41.5174 102.257Z" fill="#001133"/>
    <path d="M42.3752 121.874L45.537 123.011L46.5492 119.088L43.638 118.307L42.3752 121.874Z" fill="white"/>
    <path d="M45.701 123.329L42.0669 122.018L43.4935 118.018L46.8481 118.924L45.701 123.329ZM42.6838 121.729L45.3733 122.693L46.2601 119.262L43.802 118.596L42.6838 121.729Z" fill="#001133"/>
    <path d="M43.9177 118.086L42.3947 122.375L41.2668 126.78L43.4647 127.706L43.349 128.458L37.2086 127.879L37.546 119.329L36.9869 119.281C36.6302 119.252 36.37 118.915 36.4374 118.568L36.8134 116.447C36.8809 116.081 37.2568 115.859 37.6135 115.975L43.9177 118.086Z" fill="white"/>
    <path d="M43.5514 128.718L36.958 128.091L37.2954 119.541L36.9676 119.512C36.7266 119.493 36.5146 119.377 36.3603 119.184C36.2157 118.992 36.1579 118.751 36.1965 118.519L36.5724 116.399C36.611 116.158 36.7652 115.946 36.9773 115.811C37.1893 115.685 37.4496 115.656 37.6809 115.734L44.2358 117.922L42.626 122.443L41.5464 126.636L43.7346 127.552L43.5514 128.718ZM37.4496 127.658L43.1369 128.197L43.1851 127.85L40.968 126.915L42.1537 122.308L43.5996 118.23L37.5171 116.206C37.411 116.167 37.305 116.187 37.2086 116.235C37.1122 116.283 37.0544 116.379 37.0351 116.485L36.6592 118.606C36.6399 118.712 36.6688 118.818 36.7363 118.895C36.8038 118.982 36.8905 119.03 36.9965 119.04L37.787 119.107L37.4496 127.658Z" fill="#001133"/>
    <path d="M49.9231 80.8963L62.9847 67.1021L62.5702 66.8419L49.0652 78.9395L49.9231 80.8963Z" fill="#001133"/>
    <path d="M53.4704 101.708C53.3836 101.708 53.2968 101.66 53.2486 101.563C53.1908 101.438 53.2486 101.303 53.3643 101.245C53.4029 101.226 57.4515 99.3367 58.3479 96.7051C58.3865 96.5798 58.5311 96.5123 58.6564 96.5509C58.7817 96.5894 58.8492 96.734 58.8106 96.8593C57.8563 99.6933 53.7499 101.602 53.5764 101.679C53.5378 101.698 53.5089 101.708 53.4704 101.708Z" fill="#001133"/>
    </g>
    <defs>
    <clipPath id="clip0_2377_59">
    <rect width="192" height="147.398" fill="white" transform="translate(0 34)"/>
    </clipPath>
    </defs>
</svg>
